<svg xmlns="http://www.w3.org/2000/svg" width="92" height="92" viewBox="0 0 92 92" fill="none">
    <rect width="91.56" height="91.56" rx="20" fill="url(#paint0_linear_1727_4138)" />
    <path d="M68.2206 35.6833C68.2206 34.3158 68.1054 32.9538 67.7791 31.6224C67.1931 29.1972 65.8116 27.3447 63.7442 25.9841C62.6807 25.2892 61.5102 24.8625 60.2661 24.6374C59.3109 24.4636 58.3431 24.3844 57.374 24.3622C57.3018 24.3552 57.2226 24.34 57.1421 24.333H34.8837C34.6019 24.3552 34.32 24.3691 34.0382 24.383C32.6567 24.4623 31.2835 24.6068 29.9811 25.128C27.5083 26.105 25.7213 27.813 24.68 30.2743C24.319 31.1068 24.1371 31.9893 24.008 32.8871C23.8997 33.6112 23.8414 34.3422 23.8205 35.0732C23.8205 35.1316 23.8066 35.1886 23.8066 35.2469V57.8961C23.8205 58.1574 23.8358 58.4173 23.8497 58.6786C23.9441 60.1921 24.1385 61.6902 24.7758 63.08C25.9768 65.7081 27.9942 67.437 30.7642 68.2694C31.5376 68.5085 32.3484 68.6169 33.1579 68.6892C34.1854 68.7906 35.2114 68.8045 36.2389 68.8045H56.6603C57.6295 68.8045 58.5986 68.7392 59.5677 68.6169C61.0937 68.4209 62.5252 67.972 63.8206 67.1187C65.3757 66.0903 66.5475 64.7297 67.2987 63.0286C67.6458 62.2462 67.8416 61.4151 67.986 60.5742C68.1956 59.3221 68.2387 58.0546 68.2387 56.7885C68.2317 49.752 68.2386 42.717 68.2317 35.6805L68.2206 35.6833ZM56.3312 43.0728V53.6559C56.3312 54.43 56.2229 55.1902 55.8758 55.8921C55.3413 56.9845 54.4735 57.6724 53.3086 58.0059C52.6643 58.1936 51.9993 58.295 51.3272 58.3242C49.5695 58.4118 48.0435 57.2165 47.7325 55.4793C47.4646 54.0465 48.1518 52.4677 49.6555 51.7297C50.2484 51.4406 50.8927 51.2669 51.5355 51.1363C52.2367 50.9848 52.9379 50.8472 53.6321 50.6874C54.1458 50.572 54.4777 50.2607 54.579 49.7312C54.6082 49.6158 54.6151 49.4922 54.6151 49.3768C54.6151 46.0108 54.6151 42.6447 54.6151 39.287C54.6151 39.1717 54.5929 39.0549 54.5651 38.9465C54.4929 38.6644 54.2902 38.4976 54.0014 38.5115C53.7043 38.5254 53.4155 38.5768 53.1267 38.6352C51.716 38.9104 50.3067 39.1925 48.903 39.4816L42.0551 40.8644C42.026 40.8714 41.9899 40.8867 41.9607 40.8867C41.447 41.0312 41.2665 41.2633 41.2443 41.7983C41.2373 41.8776 41.2443 41.9582 41.2443 42.0374C41.2373 46.8585 41.2443 51.6797 41.2373 56.4994C41.2373 57.2819 41.1499 58.049 40.8402 58.7717C40.3265 59.9586 39.4157 60.7049 38.1869 61.0593C37.5357 61.2469 36.8706 61.3567 36.1903 61.3775C34.4186 61.4429 32.9427 60.2629 32.64 58.5188C32.379 57.0136 33.0663 55.3918 34.7727 54.6677C35.4377 54.3925 36.125 54.241 36.8262 54.0965C37.3538 53.9881 37.8898 53.8797 38.4174 53.7713C39.1255 53.6198 39.4948 53.1709 39.5309 52.4468V52.1716C39.5309 46.6848 39.5309 41.198 39.5309 35.7111C39.5309 35.479 39.5601 35.2483 39.6101 35.0232C39.7406 34.4951 40.1168 34.1907 40.6222 34.067C41.0929 33.9433 41.5775 33.8572 42.0537 33.7557C43.413 33.4805 44.7654 33.2053 46.1247 32.9371L50.3262 32.0824C51.5702 31.8364 52.806 31.5835 54.05 31.3375C54.4554 31.2583 54.8678 31.1707 55.2788 31.1415C55.8494 31.0915 56.2479 31.4528 56.3063 32.0324C56.3201 32.17 56.3285 32.3076 56.3285 32.4451C56.3285 35.9849 56.3285 39.5247 56.3285 43.0644L56.3312 43.0728Z" fill="white" />
    <defs>
        <linearGradient id="paint0_linear_1727_4138" x1="45.78" y1="0" x2="45.78" y2="91.56" gradientUnits="userSpaceOnUse">
            <stop stop-color="#FB5971" />
            <stop offset="1" stop-color="#FA253D" />
        </linearGradient>
    </defs>
</svg>